<mxfile host="65bd71144e">
    <diagram id="Ol98zmTdrN-RQyFQjSUS" name="ページ1">
        <mxGraphModel dx="1116" dy="659" grid="1" gridSize="10" guides="1" tooltips="1" connect="1" arrows="1" fold="1" page="1" pageScale="1" pageWidth="827" pageHeight="1169" math="0" shadow="0">
            <root>
                <mxCell id="0"/>
                <mxCell id="1" parent="0"/>
                <mxCell id="2" value="瞬き" style="swimlane;whiteSpace=wrap;html=1;startSize=23;" parent="1" vertex="1">
                    <mxGeometry x="240" y="80" width="560" height="279.5" as="geometry"/>
                </mxCell>
                <mxCell id="3" value="瞬きの回数が10秒に1~2回：正常な状態&lt;div&gt;&lt;/div&gt;" style="rounded=1;whiteSpace=wrap;html=1;shadow=0;labelBackgroundColor=none;strokeColor=none;strokeWidth=3;fillColor=#F08705;fontFamily=Helvetica;fontSize=14;fontColor=#FFFFFF;align=center;spacing=5;fontStyle=1;arcSize=0;perimeterSpacing=2;" parent="2" vertex="1">
                    <mxGeometry x="10" y="210" width="150" height="63" as="geometry"/>
                </mxCell>
                <mxCell id="4" style="edgeStyle=orthogonalEdgeStyle;rounded=0;orthogonalLoop=1;jettySize=auto;html=1;" parent="2" source="5" target="3" edge="1">
                    <mxGeometry relative="1" as="geometry"/>
                </mxCell>
                <UserObject label="6~10の瞬きはリラックスされたフラットな状態" link="https://zenn.dev/minegishirei/books/engineer_psychology/viewer/1000eye#%E7%9E%AC%E3%81%8D%E3%81%AE%E5%9B%9E%E6%95%B0%E3%81%8C10%E7%A7%92%E3%81%AB1~2%E5%9B%9E%EF%BC%9A%E6%AD%A3%E5%B8%B8%E3%81%AA%E7%8A%B6%E6%85%8B" id="5">
                    <mxCell style="rounded=1;whiteSpace=wrap;html=1;shadow=0;labelBackgroundColor=none;strokeColor=none;strokeWidth=3;fillColor=#f5af58;fontFamily=Helvetica;fontSize=14;fontColor=#FFFFFF;align=left;spacing=5;arcSize=0;perimeterSpacing=2;" parent="2" vertex="1">
                        <mxGeometry x="10" y="30" width="150" height="150" as="geometry"/>
                    </mxCell>
                </UserObject>
                <mxCell id="6" value="極端に少ない瞬き：噓の可能性、緊張状態" style="rounded=1;whiteSpace=wrap;html=1;shadow=0;labelBackgroundColor=none;strokeColor=none;strokeWidth=3;fillColor=#1699d3;fontFamily=Helvetica;fontSize=14;fontColor=#FFFFFF;align=center;spacing=5;fontStyle=1;arcSize=0;perimeterSpacing=2;" parent="2" vertex="1">
                    <mxGeometry x="200" y="210" width="150" height="60" as="geometry"/>
                </mxCell>
                <mxCell id="7" style="edgeStyle=orthogonalEdgeStyle;rounded=0;orthogonalLoop=1;jettySize=auto;html=1;entryX=0.5;entryY=0;entryDx=0;entryDy=0;" parent="2" source="8" target="6" edge="1">
                    <mxGeometry relative="1" as="geometry"/>
                </mxCell>
                <UserObject label="瞬きの数が極端に減少した場合、かなりの緊張状態であることは間違いありません。" link="https://zenn.dev/minegishirei/books/engineer_psychology/viewer/1000eye#%E6%A5%B5%E7%AB%AF%E3%81%AB%E5%B0%91%E3%81%AA%E3%81%84%E7%9E%AC%E3%81%8D%EF%BC%9A%E5%99%93%E3%81%AE%E5%8F%AF%E8%83%BD%E6%80%A7%E3%80%81%E7%B7%8A%E5%BC%B5%E7%8A%B6%E6%85%8B" id="8">
                    <mxCell style="rounded=1;whiteSpace=wrap;html=1;shadow=0;labelBackgroundColor=none;strokeColor=none;strokeWidth=3;fillColor=#64bbe2;fontFamily=Helvetica;fontSize=14;fontColor=#FFFFFF;align=left;spacing=5;arcSize=0;perimeterSpacing=2;" parent="2" vertex="1">
                        <mxGeometry x="200" y="30" width="150" height="149.5" as="geometry"/>
                    </mxCell>
                </UserObject>
                <mxCell id="9" value="目を覆う（アイブロック）：拒絶反応を表している。" style="rounded=1;whiteSpace=wrap;html=1;shadow=0;labelBackgroundColor=none;strokeColor=none;strokeWidth=3;fillColor=#1699d3;fontFamily=Helvetica;fontSize=14;fontColor=#FFFFFF;align=center;spacing=5;fontStyle=1;arcSize=0;perimeterSpacing=2;" parent="2" vertex="1">
                    <mxGeometry x="400" y="210" width="150" height="60" as="geometry"/>
                </mxCell>
                <mxCell id="10" style="edgeStyle=orthogonalEdgeStyle;rounded=0;orthogonalLoop=1;jettySize=auto;html=1;entryX=0.5;entryY=0;entryDx=0;entryDy=0;" parent="2" source="11" target="9" edge="1">
                    <mxGeometry relative="1" as="geometry"/>
                </mxCell>
                <UserObject label="何か頼みごとをしたときに、瞬きを遅らせたり、目を覆うのは不快を感じている状態である。" link="https://zenn.dev/minegishirei/books/engineer_psychology/viewer/1000eye#%E6%A5%B5%E7%AB%AF%E3%81%AB%E5%B0%91%E3%81%AA%E3%81%84%E7%9E%AC%E3%81%8D%EF%BC%9A%E5%99%93%E3%81%AE%E5%8F%AF%E8%83%BD%E6%80%A7%E3%80%81%E7%B7%8A%E5%BC%B5%E7%8A%B6%E6%85%8B" id="11">
                    <mxCell style="rounded=1;whiteSpace=wrap;html=1;shadow=0;labelBackgroundColor=none;strokeColor=none;strokeWidth=3;fillColor=#64bbe2;fontFamily=Helvetica;fontSize=14;fontColor=#FFFFFF;align=left;spacing=5;arcSize=0;perimeterSpacing=2;" parent="2" vertex="1">
                        <mxGeometry x="400" y="30" width="150" height="149.5" as="geometry"/>
                    </mxCell>
                </UserObject>
                <mxCell id="12" value="眉の動き" style="swimlane;whiteSpace=wrap;html=1;startSize=23;" parent="1" vertex="1">
                    <mxGeometry x="40" y="80" width="170" height="279.5" as="geometry"/>
                </mxCell>
                <mxCell id="13" value="フラッシュとも呼ばれる急激な眉の上昇が見られる場合、それは良い兆候です&lt;div&gt;&lt;/div&gt;" style="rounded=1;whiteSpace=wrap;html=1;shadow=0;labelBackgroundColor=none;strokeColor=none;strokeWidth=3;fillColor=#F08705;fontFamily=Helvetica;fontSize=14;fontColor=#FFFFFF;align=center;spacing=5;fontStyle=1;arcSize=0;perimeterSpacing=2;" parent="12" vertex="1">
                    <mxGeometry x="10" y="210" width="150" height="63" as="geometry"/>
                </mxCell>
                <mxCell id="14" style="edgeStyle=orthogonalEdgeStyle;rounded=0;orthogonalLoop=1;jettySize=auto;html=1;" parent="12" source="15" target="13" edge="1">
                    <mxGeometry relative="1" as="geometry"/>
                </mxCell>
                <UserObject label="&lt;div&gt;眉を上げるの行動にはある程度のエネルギーを必要とします。なぜならば、これは重力に逆らう行動だからです。このことから、眉を上げる&lt;span style=&quot;background-color: initial;&quot;&gt;行動は肯定的とみなさることが多いです。&lt;/span&gt;&lt;/div&gt;" link="https://zenn.dev/minegishirei/books/engineer_psychology/viewer/1000eye#%E7%9E%AC%E3%81%8D%E3%81%AE%E5%9B%9E%E6%95%B0%E3%81%8C10%E7%A7%92%E3%81%AB1~2%E5%9B%9E%EF%BC%9A%E6%AD%A3%E5%B8%B8%E3%81%AA%E7%8A%B6%E6%85%8B" id="15">
                    <mxCell style="rounded=1;whiteSpace=wrap;html=1;shadow=0;labelBackgroundColor=none;strokeColor=none;strokeWidth=3;fillColor=#f5af58;fontFamily=Helvetica;fontSize=14;fontColor=#FFFFFF;align=left;spacing=5;arcSize=0;perimeterSpacing=2;" parent="12" vertex="1">
                        <mxGeometry x="10" y="30" width="150" height="150" as="geometry"/>
                    </mxCell>
                </UserObject>
                <mxCell id="16" value="瞳孔" style="swimlane;whiteSpace=wrap;html=1;startSize=23;" parent="1" vertex="1">
                    <mxGeometry x="240" y="400" width="560" height="279.5" as="geometry"/>
                </mxCell>
                <mxCell id="17" value="瞳孔が少し開く:リラックスした状態&lt;div&gt;&lt;/div&gt;" style="rounded=1;whiteSpace=wrap;html=1;shadow=0;labelBackgroundColor=none;strokeColor=none;strokeWidth=3;fillColor=#F08705;fontFamily=Helvetica;fontSize=14;fontColor=#FFFFFF;align=center;spacing=5;fontStyle=1;arcSize=0;perimeterSpacing=2;" parent="16" vertex="1">
                    <mxGeometry x="10" y="210" width="150" height="63" as="geometry"/>
                </mxCell>
                <mxCell id="18" style="edgeStyle=orthogonalEdgeStyle;rounded=0;orthogonalLoop=1;jettySize=auto;html=1;" parent="16" source="19" target="17" edge="1">
                    <mxGeometry relative="1" as="geometry"/>
                </mxCell>
                <UserObject label="微笑んだり笑ったりすると、通常は瞳孔が少しだけ開きます。" link="https://zenn.dev/minegishirei/books/engineer_psychology/viewer/1000eye#%E7%9E%AC%E3%81%8D%E3%81%AE%E5%9B%9E%E6%95%B0%E3%81%8C10%E7%A7%92%E3%81%AB1~2%E5%9B%9E%EF%BC%9A%E6%AD%A3%E5%B8%B8%E3%81%AA%E7%8A%B6%E6%85%8B" id="19">
                    <mxCell style="rounded=1;whiteSpace=wrap;html=1;shadow=0;labelBackgroundColor=none;strokeColor=none;strokeWidth=3;fillColor=#f5af58;fontFamily=Helvetica;fontSize=14;fontColor=#FFFFFF;align=left;spacing=5;arcSize=0;perimeterSpacing=2;" parent="16" vertex="1">
                        <mxGeometry x="10" y="30" width="150" height="150" as="geometry"/>
                    </mxCell>
                </UserObject>
                <mxCell id="20" value="目を見開く:瞳孔を広げ脅威を見つけるため" style="rounded=1;whiteSpace=wrap;html=1;shadow=0;labelBackgroundColor=none;strokeColor=none;strokeWidth=3;fillColor=#1699d3;fontFamily=Helvetica;fontSize=14;fontColor=#FFFFFF;align=center;spacing=5;fontStyle=1;arcSize=0;perimeterSpacing=2;" parent="16" vertex="1">
                    <mxGeometry x="200" y="210" width="150" height="60" as="geometry"/>
                </mxCell>
                <mxCell id="21" style="edgeStyle=orthogonalEdgeStyle;rounded=0;orthogonalLoop=1;jettySize=auto;html=1;entryX=0.5;entryY=0;entryDx=0;entryDy=0;" parent="16" source="22" target="20" edge="1">
                    <mxGeometry relative="1" as="geometry"/>
                </mxCell>
                <UserObject label="この「瞳孔が開く」という現象は、重要な場面でこそ顕著に現れます。" link="https://zenn.dev/minegishirei/books/engineer_psychology/viewer/1000eye#%E6%A5%B5%E7%AB%AF%E3%81%AB%E5%B0%91%E3%81%AA%E3%81%84%E7%9E%AC%E3%81%8D%EF%BC%9A%E5%99%93%E3%81%AE%E5%8F%AF%E8%83%BD%E6%80%A7%E3%80%81%E7%B7%8A%E5%BC%B5%E7%8A%B6%E6%85%8B" id="22">
                    <mxCell style="rounded=1;whiteSpace=wrap;html=1;shadow=0;labelBackgroundColor=none;strokeColor=none;strokeWidth=3;fillColor=#64bbe2;fontFamily=Helvetica;fontSize=14;fontColor=#FFFFFF;align=left;spacing=5;arcSize=0;perimeterSpacing=2;" parent="16" vertex="1">
                        <mxGeometry x="200" y="30" width="150" height="149.5" as="geometry"/>
                    </mxCell>
                </UserObject>
                <mxCell id="23" style="edgeStyle=orthogonalEdgeStyle;rounded=0;orthogonalLoop=1;jettySize=auto;html=1;" parent="16" source="24" target="25" edge="1">
                    <mxGeometry relative="1" as="geometry"/>
                </mxCell>
                <UserObject label="誰かが目を細めたときは、何か恐怖を感じている状態であり、情報の処理に時間がかかっていると判断してよいです。" link="https://qiita.com/" id="24">
                    <mxCell style="rounded=1;whiteSpace=wrap;html=1;shadow=0;labelBackgroundColor=none;strokeColor=none;strokeWidth=3;fillColor=#61c6ce;fontFamily=Helvetica;fontSize=14;fontColor=#FFFFFF;align=center;spacing=5;fontStyle=0;arcSize=0;perimeterSpacing=2;" parent="16" vertex="1">
                        <mxGeometry x="400" y="30" width="150" height="150" as="geometry"/>
                    </mxCell>
                </UserObject>
                <mxCell id="25" value="目が細くなる:理解しようとしているor疑いを持つ" style="rounded=1;whiteSpace=wrap;html=1;shadow=0;labelBackgroundColor=none;strokeColor=none;strokeWidth=3;fillColor=#12aab5;fontFamily=Helvetica;fontSize=14;fontColor=#FFFFFF;align=center;spacing=5;fontStyle=1;arcSize=0;perimeterSpacing=2;" parent="16" vertex="1">
                    <mxGeometry x="400" y="210" width="150" height="60" as="geometry"/>
                </mxCell>
                <mxCell id="26" value="サッカード" style="swimlane;whiteSpace=wrap;html=1;startSize=23;" parent="1" vertex="1">
                    <mxGeometry x="40" y="400" width="170" height="279.5" as="geometry"/>
                </mxCell>
                <mxCell id="27" value="目の焦点が動かない:集中状態" style="rounded=1;whiteSpace=wrap;html=1;shadow=0;labelBackgroundColor=none;strokeColor=none;strokeWidth=3;fillColor=#FF66B3;fontFamily=Helvetica;fontSize=14;fontColor=#FFFFFF;align=center;spacing=5;fontStyle=0;arcSize=0;perimeterSpacing=2;" parent="26" vertex="1">
                    <mxGeometry x="10" y="210" width="150" height="60" as="geometry"/>
                </mxCell>
                <mxCell id="28" value="&lt;div&gt;論文「眼球運動の変化に基づく心理状態の推定」によると&lt;/div&gt;&lt;div&gt;課題遂行中に眼球運動の頻度や振幅（これを、サッカード現象と呼ぶ）が減少したことがわかった。&lt;/div&gt;" style="rounded=1;whiteSpace=wrap;html=1;shadow=0;labelBackgroundColor=none;strokeColor=none;strokeWidth=3;fillColor=#FF99CC;fontFamily=Helvetica;fontSize=14;fontColor=#FFFFFF;align=center;spacing=5;fontStyle=1;arcSize=0;perimeterSpacing=2;" parent="26" vertex="1">
                    <mxGeometry x="10" y="30" width="150" height="150" as="geometry"/>
                </mxCell>
                <mxCell id="29" value="視線" style="swimlane;whiteSpace=wrap;html=1;startSize=23;" parent="1" vertex="1">
                    <mxGeometry x="40" y="720" width="170" height="279.5" as="geometry"/>
                </mxCell>
                <mxCell id="30" style="edgeStyle=orthogonalEdgeStyle;rounded=0;orthogonalLoop=1;jettySize=auto;html=1;" parent="29" source="31" target="32" edge="1">
                    <mxGeometry relative="1" as="geometry"/>
                </mxCell>
                <UserObject label="物事が不可能に思えるときや、人が不運に見舞われたときに、天井や空を見上げる人もいます。" link="https://qiita.com/" id="31">
                    <mxCell style="rounded=1;whiteSpace=wrap;html=1;shadow=0;labelBackgroundColor=none;strokeColor=none;strokeWidth=3;fillColor=#61c6ce;fontFamily=Helvetica;fontSize=14;fontColor=#FFFFFF;align=center;spacing=5;fontStyle=0;arcSize=0;perimeterSpacing=2;" parent="29" vertex="1">
                        <mxGeometry x="10" y="30" width="150" height="150" as="geometry"/>
                    </mxCell>
                </UserObject>
                <mxCell id="32" value="見上げる:信じられない" style="rounded=1;whiteSpace=wrap;html=1;shadow=0;labelBackgroundColor=none;strokeColor=none;strokeWidth=3;fillColor=#12aab5;fontFamily=Helvetica;fontSize=14;fontColor=#FFFFFF;align=center;spacing=5;fontStyle=1;arcSize=0;perimeterSpacing=2;" parent="29" vertex="1">
                    <mxGeometry x="10" y="210" width="150" height="60" as="geometry"/>
                </mxCell>
                <mxCell id="33" value="ミラーリング" style="swimlane;whiteSpace=wrap;html=1;" parent="1" vertex="1">
                    <mxGeometry x="40" y="1040" width="170" height="279.5" as="geometry"/>
                </mxCell>
                <mxCell id="34" value="好感度UP!" style="rounded=1;whiteSpace=wrap;html=1;shadow=0;labelBackgroundColor=none;strokeColor=none;strokeWidth=3;fillColor=#F08705;fontFamily=Helvetica;fontSize=14;fontColor=#FFFFFF;align=center;spacing=5;fontStyle=1;arcSize=7;perimeterSpacing=2;" parent="33" vertex="1">
                    <mxGeometry x="10" y="200" width="150" height="73" as="geometry"/>
                </mxCell>
                <mxCell id="35" style="edgeStyle=orthogonalEdgeStyle;rounded=0;orthogonalLoop=1;jettySize=auto;html=1;" parent="33" source="36" target="34" edge="1">
                    <mxGeometry relative="1" as="geometry"/>
                </mxCell>
                <mxCell id="36" value="同じ行動をとる人を&lt;br&gt;無意識に気に入ってしまう心理" style="rounded=1;whiteSpace=wrap;html=1;shadow=0;labelBackgroundColor=none;strokeColor=none;strokeWidth=3;fillColor=#f5af58;fontFamily=Helvetica;fontSize=14;fontColor=#FFFFFF;align=center;spacing=5;arcSize=7;perimeterSpacing=2;" parent="33" vertex="1">
                    <mxGeometry x="10" y="120" width="150" height="62" as="geometry"/>
                </mxCell>
                <mxCell id="38" style="edgeStyle=none;html=1;" edge="1" parent="33" source="37" target="36">
                    <mxGeometry relative="1" as="geometry"/>
                </mxCell>
                <mxCell id="37" value="同じ行動をとる" style="rounded=1;whiteSpace=wrap;html=1;shadow=0;labelBackgroundColor=none;strokeColor=none;strokeWidth=3;fillColor=#f5af58;fontFamily=Helvetica;fontSize=14;fontColor=#FFFFFF;align=center;spacing=5;arcSize=7;perimeterSpacing=2;" vertex="1" parent="33">
                    <mxGeometry x="10" y="30" width="150" height="60" as="geometry"/>
                </mxCell>
            </root>
        </mxGraphModel>
    </diagram>
</mxfile>